<svg width="1150" height="958" xmlns="http://www.w3.org/2000/svg" xmlns:xlink="http://www.w3.org/1999/xlink" xml:space="preserve" overflow="hidden"><g transform="translate(-944 -889)"><g><path d="M1177.54 1781.59C1263.77 1715.33 1269.78 1672.57 1323.93 1631.96 1376.07 1591.34 1410.16 1555 1478.34 1495.15 1528.47 1450.26 1612.69 1407.5 1634.75 1375.44 1720.98 1381.85 1765.1 1319.86 1883.41 1234.35 1909.48 1215.11 1959.62 1198.01 1981.68 1174.5 2055.87 1095.41 2104 1067.62 2085.95 1050.51 2061.89 1027 1987.69 1108.23 1887.42 1148.85 1787.16 1189.46 1775.13 1183.05 1700.93 1193.74 1628.74 1202.29 1610.69 1200.15 1562.56 1227.94 1514.43 1257.87 1454.27 1300.62 1402.14 1334.82 1347.99 1366.89 1309.89 1334.82 1241.71 1383.99 1173.53 1433.16 1161.5 1527.21 1157.48 1574.24 1153.47 1621.27 1095.32 1659.75 1057.22 1702.5 1007.09 1753.81 975 1792.28 1005.08 1824.35 1027.14 1850 1091.31 1847.86 1177.54 1781.59Z" fill="#7D4453" fill-rule="evenodd" fill-opacity="1"/><path d="M1057.32 1702.16C1095.42 1659.41 1153.57 1620.93 1157.58 1573.91 1161.59 1526.88 1173.62 1432.83 1241.8 1383.66 1309.98 1334.5 1348.07 1366.56 1402.22 1334.5 1454.35 1300.3 1514.51 1257.55 1562.63 1227.62 1610.76 1199.83 1628.81 1201.97 1700.99 1193.42 1775.19 1182.73 1787.22 1189.15 1887.48 1148.53 1987.74 1107.92 2061.93 1026.69 2085.99 1050.21 2085.99 1050.21 2085.99 1050.21 2088 1050.21 2083.99 1005.32 2009.8 994.629 1923.57 973.253 1867.43 960.428 1793.23 947.603 1751.12 960.428 1733.08 964.703 1715.03 973.253 1696.98 971.116 1618.78 958.29 1309.98 845 1123.49 919.814 1015.21 962.565 975.104 1073.72 957.057 1210.52 935 1390.08 965.078 1499.09 969.089 1561.08 973.099 1618.79 941.016 1772.7 1005.18 1824 975.104 1791.94 1007.19 1753.46 1057.32 1702.16Z" fill="#9C717A" fill-rule="evenodd" fill-opacity="1"/><path d="M1466 943.409C1393.85 919.909 1201.46 890 1107.27 949.818 1015.08 1009.64 985.016 1131.41 977 1266 991.029 1197.64 1015.08 1003.23 1127.31 956.227 1237.53 907.091 1353.77 922.045 1466 943.409Z" fill="#FFFFFF" fill-rule="evenodd" fill-opacity="1"/><path d="M1163.73 988.096C1047.29 1041.56 1023.2 1180.57 1015.17 1261.83 1007.14 1340.96 1009.15 1541.98 993.09 1604 999.113 1556.95 969 1400.84 977.03 1266.11 985.06 1131.38 1023.2 1013.76 1115.55 953.88 1209.9 894 1432.74 921.801 1503 947.464 1460.84 938.91 1276.15 936.771 1163.73 988.096Z" fill="#B39198" fill-rule="evenodd" fill-opacity="1"/><path d="M1953 1001.34C1900.85 980.04 1818.62 969.39 1788.53 969.39 1750.43 971.52 1720.34 984.3 1710.31 1009.86 1700.28 1035.42 1676.22 1075.89 1650.14 1105.71 1624.07 1135.53 1606.02 1156.83 1600 1176 1628.08 1146.18 1680.23 1114.23 1704.3 1073.76 1728.36 1033.29 1778.51 963 1953 1001.34Z" fill="#B39198" fill-rule="evenodd" fill-opacity="1"/><path d="M1644 1114C1670.14 1079.81 1690.25 1034.93 1708.34 1005.01 1726.44 977.233 1762.63 958 1831 970.822 1790.79 968.685 1742.53 970.822 1714.38 1011.42 1686.23 1058.44 1662.1 1099.04 1644 1114Z" fill="#FFFFFF" fill-rule="evenodd" fill-opacity="1"/><path d="M1055.13 1824.64C1035.09 1833.2 1007.04 1833.2 995.022 1811.81 983 1792.56 999.029 1766.9 1011.05 1749.79 1043.11 1704.88 1087.19 1672.8 1123.25 1634.31 1135.27 1621.48 1143.29 1608.64 1149.3 1593.67 1155.31 1582.98 1153.31 1570.15 1157.31 1557.32 1163.32 1542.35 1173.34 1548.76 1179.35 1561.59 1187.37 1578.7 1183.36 1600.09 1175.35 1617.2 1151.3 1664.25 1107.22 1696.33 1071.16 1732.68 1053.13 1751.93 1009.05 1794.7 1051.12 1801.12 1087.19 1807.53 1135.27 1779.73 1161.32 1754.07 1175.35 1741.24 1217.42 1683.5 1229.44 1668.52 1243.47 1651.42 1255.49 1636.45 1271.52 1623.61 1287.55 1612.92 1305.58 1602.23 1317.6 1587.26 1363.68 1533.79 1527.98 1433.28 1540 1429 1538 1433.28 1538 1433.28 1538 1433.28 1493.92 1465.36 1391.73 1548.76 1363.68 1580.84 1345.65 1595.81 1331.63 1615.06 1313.59 1630.03 1295.56 1647.14 1271.52 1664.25 1255.49 1683.5 1219.42 1728.41 1177.35 1775.46 1127.26 1803.26 1107.22 1813.95 989.011 1861 997.025 1805.4" fill="#57152D" fill-rule="evenodd" fill-opacity="1"/><path d="M1969.76 1182.78C2009.84 1133.63 2067.95 1095.16 2075.97 1080.2 2092 1056.69 2077.97 1046 2069.96 1050.27 2075.97 1058.82 2013.85 1127.22 1977.78 1150.73 1941.71 1174.24 1923.67 1180.65 1865.56 1223.39 1819.47 1257.59 1745.32 1308.88 1711.26 1319.57 1677.19 1330.25 1653.14 1291.78 1659.16 1249.04 1665.17 1206.29 1731.3 1238.35 1819.47 1208.43 1907.64 1178.51 1989.8 1107.98 2011.84 1086.61 2023.87 1078.06 2037.89 1063.1 2041.9 1058.82 2003.83 1080.2 1951.73 1122.94 1887.6 1148.59 1787.41 1189.2 1775.38 1182.78 1701.24 1193.47 1645.13 1199.88 1621.08 1199.88 1589.02 1214.84 1585.01 1216.98 1581 1221.25 1581 1225.53 1579 1244.76 1597.04 1274.69 1597.04 1291.78 1599.04 1338.8 1619.08 1373 1659.16 1373 1673.18 1373 1691.22 1362.31 1709.25 1360.18 1757.35 1338.8 1803.44 1291.78 1883.59 1234.08 1905.64 1216.98 1943.71 1199.88 1969.76 1182.78Z" fill="#57152D" fill-rule="evenodd" fill-opacity="1"/><path d="M1578.73 1284C1582.76 1298.9 1582.76 1315.92 1588.82 1330.82 1594.88 1345.72 1607 1358.49 1602.96 1375.51 1600.94 1390.41 1580.75 1403.18 1568.63 1411.69 1550.45 1424.46 1526.22 1445.74 1504 1450 1530.25 1439.36 1572.67 1403.18 1578.73 1373.38 1584.78 1345.72 1562.57 1315.92 1574.69 1288.26" fill="#57152D" fill-rule="evenodd" fill-opacity="1"/><path d="M1555.95 1238.14C1541.92 1242.42 1525.88 1250.98 1515.86 1259.54 1485.79 1283.08 1445.7 1310.89 1413.63 1328.01 1395.59 1336.57 1387.58 1342.99 1369.54 1347.27 1367.53 1349.41 1363.52 1349.41 1361.52 1349.41 1357.51 1349.41 1353.5 1351.55 1349.49 1351.55 1341.47 1351.55 1335.46 1353.69 1329.45 1355.83 1331.45 1351.55 1331.45 1351.55 1331.45 1351.55 1305.39 1353.69 1277.33 1357.97 1241.25 1383.65 1173.1 1432.86 1161.08 1527.01 1157.07 1574.09 1155.06 1595.48 1143.04 1614.74 1127 1634 1143.04 1631.86 1163.08 1625.44 1175.11 1606.18 1203.17 1561.25 1265.31 1554.83 1291.36 1501.33 1317.42 1447.84 1285.35 1405.04 1331.45 1387.92 1357.51 1377.23 1385.57 1364.39 1409.62 1355.83 1425.66 1347.27 1441.69 1338.71 1455.73 1328.01 1469.76 1317.31 1481.78 1304.47 1495.81 1293.77 1511.85 1283.08 1533.9 1253.12 1553.94 1268.1 1569.98 1280.94 1561.96 1317.31 1578 1328.01 1580 1306.61 1575.99 1278.8 1571.98 1257.4 1569.98 1246.7 1569.98 1236 1555.95 1238.14Z" fill="#57152D" fill-rule="evenodd" fill-opacity="1"/><path d="M1687 984C1687 1009.7 1670.88 1052.53 1628.55 1095.36 1586.23 1138.19 1566.08 1185.3 1572.12 1211 1556 1176.74 1582.2 1127.48 1606.38 1097.5 1646.69 1043.96 1682.97 1035.4 1687 984Z" fill="#7D4453" fill-rule="evenodd" fill-opacity="1"/><path d="M1695 1176C1747 1163.25 1771 1176 1837 1150.5 1887 1129.25 1923 1099.5 1965 1082.5 2007 1067.62 2033 1046.37 2045 1040 2011 1044.25 1995 1057 1961 1067.62 1927 1078.25 1899 1086.75 1875 1108 1851 1127.12 1831 1135.62 1791 1146.25 1751 1159 1703 1167.5 1695 1176Z" fill="#7D4453" fill-rule="evenodd" fill-opacity="1"/><path d="M1831 1256C1841 1245.25 1843 1228.05 1851 1215.15 1859 1200.1 1873 1185.05 1883 1174.3 1907 1148.5 1943 1133.45 1975 1129.15 1989 1129.15 2017 1127 1999 1146.35 1987 1161.4 1967 1170 1951 1178.6 1913 1200.1 1879 1225.9 1843 1251.7" fill="#57152D" fill-rule="evenodd" fill-opacity="1"/><path d="M1663 1285.43C1673 1309.18 1687 1361 1805 1266 1775 1285.43 1685 1337.25 1663 1285.43Z" fill="#9C717A" fill-rule="evenodd" fill-opacity="1"/><path d="M1114 1615C1132 1597.87 1136 1572.16 1154 1497.2 1172 1424.38 1206 1336.57 1340 1338.71 1288 1334.43 1234 1328 1198 1366.55 1160 1402.96 1160 1415.81 1146 1486.49 1132 1557.17 1130 1593.58 1114 1615Z" fill="#B39198" fill-rule="evenodd" fill-opacity="1"/><path d="M1178.04 1782.09C1264.27 1715.83 1270.28 1673.07 1324.43 1632.46 1376.57 1591.84 1410.66 1555.5 1478.84 1495.65 1528.97 1450.76 1613.19 1408 1635.25 1375.94 1721.48 1382.35 1765.6 1320.36 1883.91 1234.85 1909.98 1215.61 1960.12 1198.51 1982.17 1175 2056.37 1095.91 2104.5 1068.12 2086.45 1051.01 2062.39 1027.5 1988.19 1108.73 1887.92 1149.35 1787.66 1189.96 1775.63 1183.55 1701.43 1194.24 1629.24 1202.79 1611.19 1200.65 1563.06 1228.44 1514.93 1258.37 1454.77 1301.12 1402.64 1335.32 1348.49 1367.39 1310.39 1335.32 1242.21 1384.49 1174.03 1433.66 1162 1527.71 1157.98 1574.74 1153.97 1621.77 1095.82 1660.25 1057.72 1703 1007.59 1754.31 975.5 1792.78 1005.58 1824.85 1027.64 1850.5 1091.81 1848.36 1178.04 1782.09Z" stroke="#1A171B" stroke-width="4.58333" stroke-linecap="round" stroke-linejoin="round" stroke-miterlimit="10" stroke-opacity="1" fill="none" fill-rule="evenodd"/><path d="M1057.82 1702.66C1095.92 1659.91 1154.07 1621.43 1158.08 1574.41 1162.09 1527.38 1174.12 1433.33 1242.3 1384.16 1310.48 1335 1348.57 1367.06 1402.72 1335 1454.85 1300.8 1515.01 1258.05 1563.13 1228.12 1611.26 1200.33 1629.31 1202.47 1701.49 1193.92 1775.69 1183.23 1787.72 1189.65 1887.98 1149.03 1988.24 1108.42 2062.43 1027.19 2086.49 1050.71 2086.49 1050.71 2086.49 1050.71 2088.5 1050.71 2084.49 1005.82 2010.3 995.129 1924.07 973.753 1867.93 960.928 1793.73 948.103 1751.62 960.928 1733.58 965.203 1715.53 973.753 1697.48 971.616 1619.28 958.791 1310.48 845.5 1123.99 920.315 1015.71 963.066 975.604 1074.22 957.557 1211.02 935.5 1390.58 965.578 1499.59 969.589 1561.58 973.599 1619.29 941.515 1773.2 1005.68 1824.5 975.604 1792.44 1007.69 1753.96 1057.82 1702.66Z" stroke="#1A171B" stroke-width="4.58333" stroke-linecap="round" stroke-linejoin="round" stroke-miterlimit="10" stroke-opacity="1" fill="none" fill-rule="evenodd"/><path d="M1685.42 984.5C1695.5 1018.72 1645.1 1076.47 1608.82 1125.67 1572.53 1174.86 1568.5 1204.81 1572.53 1215.5" stroke="#1A171B" stroke-width="4.58333" stroke-linecap="round" stroke-linejoin="round" stroke-miterlimit="10" stroke-opacity="1" fill="none" fill-rule="evenodd"/><path d="M1571.5 1221.5C1599.5 1238.63 1587.5 1356.37 1643.5 1373.5" stroke="#1A171B" stroke-width="4.58333" stroke-linecap="round" stroke-linejoin="round" stroke-miterlimit="10" stroke-opacity="1" fill="none" fill-rule="evenodd"/></g></g></svg>