<svg width="1412" height="600" xmlns="http://www.w3.org/2000/svg" xmlns:xlink="http://www.w3.org/1999/xlink" xml:space="preserve" overflow="hidden"><g transform="translate(-1622 -559)"><g><path d="M1691.72 736.552C1635.88 756.43 1627.29 843.59 1625.86 864.997 1623 883.347 1624.43 941.453 1627.29 959.802 1630.16 978.152 1651.63 994.972 1651.63 1016.38 1653.06 1040.85 1655.93 1043.9 1664.52 1065.31 1681.7 1114.24 1718.92 1138.71 1767.59 1147.88 1791.93 1152.47 1806.24 1152.47 1832.01 1154 1842.03 1154 1857.78 1152.47 1869.23 1149.41 1883.55 1146.35 1890.71 1143.3 1903.59 1138.71 1917.91 1134.12 1930.79 1132.59 1943.68 1126.48 1968.01 1112.71 1970.88 1115.77 1996.64 1111.18 2025.28 1106.6 2043.89 1086.72 2065.36 1072.96 2083.97 1062.25 2095.42 1056.14 2115.47 1043.9 2132.65 1033.2 2149.82 987.327 2138.37 968.977 2141.24 972.035 2141.24 972.035 2141.24 972.035 2165.57 972.035 2189.91 970.506 2215.68 968.977 2268.65 967.448 2331.64 965.919 2383.17 950.628 2414.67 941.453 2450.46 933.808 2483.39 932.278 2519.18 930.749 2542.08 921.575 2577.87 910.871 2630.84 895.58 2683.81 831.357 2733.91 816.066 2745.37 811.478 2759.68 800.775 2772.57 796.187 2782.59 793.129 2795.47 793.129 2805.49 790.071 2829.83 782.425 2887.09 757.959 2908.57 747.256 2947.22 730.435 3046 666.213 3027.39 580.582 3021.66 550 2967.26 563.762 2920.02 580.582 2887.09 592.815 2841.28 588.228 2805.49 588.228 2775.43 588.228 2759.68 589.757 2731.05 591.286 2709.58 591.286 2689.53 595.873 2668.06 597.403 2645.16 597.403 2633.7 605.048 2610.8 608.106 2585.03 611.165 2552.1 603.519 2524.9 600.461 2494.84 597.403 2451.89 600.461 2420.4 608.106 2363.13 620.339 2295.85 615.752 2232.86 611.165 2167 608.106 2111.17 595.873 2045.32 606.577 1989.49 615.752 1909.32 605.048 1857.78 635.63 1837.74 647.863 1781.91 663.154 1764.73 678.446 1740.39 701.382 1714.62 715.144 1690.28 736.552" fill="#FEE8B0" fill-rule="evenodd" fill-opacity="1"/><path d="M1957.46 1015.13C1983.23 1009.04 2007.56 990.783 2033.33 981.652 2056.23 974.044 2083.43 971 2106.33 977.087 2155 989.261 2113.49 1031.87 2089.15 1048.61 2059.09 1068.39 2026.17 1094.26 1991.82 1101.87 1943.15 1112.52 1895.91 1130.78 1845.81 1141.43 1822.91 1146 1802.87 1142.96 1779.96 1136.87 1767.08 1133.83 1735.59 1133.83 1727 1124.7 1754.2 1124.7 1784.26 1124.7 1808.59 1111 1828.63 1098.83 1831.49 1107.96 1852.97 1111 1873.01 1112.52 1904.5 1106.43 1920.24 1095.78 1934.56 1088.17 1941.72 1071.43 1954.6 1063.83 1977.5 1091.22 2010.42 1076 2034.76 1063.83 2054.8 1053.17 2092.02 1056.22 2097.74 1024.26 2096.31 1022.74 2094.88 1024.26 2093.45 1022.74 2079.13 992.304 2033.33 1006 2008.99 1015.13 1990.38 1022.74 1978.93 1028.83 1958.89 1028.83 1943.15 1028.83 1928.83 1033.39 1914.52 1036.43 1925.97 1022.74 1940.28 1019.7 1954.6 1016.65" fill="#F4D589" fill-rule="evenodd" fill-opacity="1"/><path d="M2032 1006.97C2049.19 1005.43 2056.36 1028.57 2050.63 1044 2057.79 1037.83 2060.66 1027.03 2067.82 1022.4 2079.28 1016.23 2087.88 1025.49 2096.48 1022.4 2128 1013.14 2076.42 993.086 2063.52 990" fill="#F4D589" fill-rule="evenodd" fill-opacity="1"/><path d="M1961 1026C1953.78 1035.14 1950.89 1045.81 1949.44 1058 1937.89 1042.76 1927.78 1036.67 1909 1041.24" fill="#F4D589" fill-rule="evenodd" fill-opacity="1"/><path d="M1909.18 1013.67C1939.26 1016.75 1960.74 992.098 1986.51 981.311 2013.72 968.984 2043.79 967.443 2071 958.197 2059.54 955.115 2048.09 942.787 2043.79 932 2022.31 942.787 2022.31 952.033 1997.97 952.033 1975.06 952.033 1969.33 962.82 1956.44 979.77 1944.98 995.18 1914.91 990.557 1906.32 1001.34 1899.16 1010.59 1907.75 1012.13 1892 1026" fill="#F4D589" fill-rule="evenodd" fill-opacity="1"/><path d="M2095 957.927C2113.61 957.927 2125.06 939.781 2140.81 936.756 2152.27 935.244 2168.01 941.293 2182.33 939.781 2203.8 936.756 2223.85 938.268 2245.32 935.244 2271.09 932.22 2279.68 917.098 2299.72 905 2312.61 927.683 2344.1 923.146 2365.58 923.146 2385.62 921.634 2409.96 927.683 2430 930.707 2408.53 930.707 2385.62 941.293 2365.58 944.317 2341.24 948.854 2324.06 953.39 2301.15 954.902 2266.79 959.439 2233.87 957.927 2200.94 960.951 2178.03 963.976 2125.06 967 2103.59 959.439" fill="#F4D589" fill-rule="evenodd" fill-opacity="1"/><path d="M2480 925C2492.9 920.417 2497.2 908.195 2510.1 905.139 2521.57 902.083 2534.47 903.611 2545.94 900.556 2570.31 891.389 2617.61 879.167 2633.38 854.722 2640.55 845.556 2641.98 827.222 2643.41 815 2643.41 795.139 2643.41 799.722 2662.05 799.722 2686.42 799.722 2710.79 793.611 2732.29 787.5 2745.19 784.445 2778.16 775.278 2781.03 761.528 2796.79 766.111 2808.26 763.056 2824.03 760 2835.5 760 2848.4 764.583 2857 760 2846.97 770.695 2832.63 770.695 2819.73 775.278 2803.96 781.389 2781.03 785.972 2766.69 790.556 2736.59 798.195 2705.05 816.528 2679.25 831.806 2663.48 842.5 2653.45 857.778 2639.11 868.472 2627.65 877.639 2613.31 885.278 2601.84 892.917 2576.04 909.722 2543.07 915.833 2514.4 920.417 2505.8 921.945 2491.47 925 2485.73 923.472" fill="#F4D589" fill-rule="evenodd" fill-opacity="1"/><path d="M2846.86 765.947C2865.43 761.368 2878.29 750.684 2895.43 743.053 2911.14 735.421 2928.29 732.368 2942.57 721.684 2962.57 707.947 2998.29 680.474 3004 653 2992.57 666.737 2975.43 675.895 2958.29 677.421 2958.29 698.79 2922.57 721.684 2905.43 723.211 2885.43 726.263 2881.14 729.316 2866.86 741.526 2849.71 755.263 2834 764.421 2814 769" fill="#F4D589" fill-rule="evenodd" fill-opacity="1"/><path d="M2977.84 576.523C3000.55 575 3016.16 575 3019 605.448 3019 617.627 3016.16 628.284 3011.9 638.94 3007.65 649.597 2997.71 673.955 2990.61 677 2997.71 658.731 2999.13 641.985 2975 648.075 2977.84 634.373 3004.81 625.239 3006.23 602.403 3006.23 588.702 2990.61 579.567 2979.26 575" fill="#F4D589" fill-rule="evenodd" fill-opacity="1"/><path d="M2764 706.217C2769.67 712.304 2773.92 719.913 2775.33 726 2776.75 715.348 2776.75 700.13 2781 691" fill="#F4D589" fill-rule="evenodd" fill-opacity="1"/><path d="M2869 619C2874.6 623.5 2881.6 623.5 2890 625 2885.8 626.5 2883 632.5 2883 637" fill="#F4D589" fill-rule="evenodd" fill-opacity="1"/><path d="M2669 626.333C2679.18 627.917 2687.91 620 2701 624.75 2695.18 627.917 2692.27 634.25 2695.18 639" fill="#F4D589" fill-rule="evenodd" fill-opacity="1"/><path d="M2460 717C2461.5 727.5 2469 735 2472 744 2467.5 741 2461.5 738 2457 739.5" fill="#F4D589" fill-rule="evenodd" fill-opacity="1"/><path d="M2490.2 914.467C2500.4 912.933 2522.26 914.467 2531 906.8 2525.17 899.133 2509.14 897.6 2500.4 893 2493.11 902.2 2485.83 909.867 2480 916" fill="#F4D589" fill-rule="evenodd" fill-opacity="1"/><path d="M2649.63 773C2642.26 783.833 2639.32 796.214 2629 802.405 2637.84 808.595 2637.84 827.167 2633.42 838 2637.84 830.262 2646.68 820.976 2657 820.976 2652.58 805.5 2648.16 796.214 2648.16 776.095" fill="#F4D589" fill-rule="evenodd" fill-opacity="1"/><path d="M2121 762.095C2133.6 762.095 2143.4 778.857 2150.4 788 2149 777.333 2151.8 765.143 2156 756 2150.4 762.095 2140.6 760.571 2133.6 757.524" fill="#F4D589" fill-rule="evenodd" fill-opacity="1"/><path d="M2174 665C2181.1 669.5 2181.1 678.5 2183.95 686 2189.63 681.5 2195.32 680 2201 678.5 2192.47 680 2185.37 674 2181.1 666.5" fill="#F4D589" fill-rule="evenodd" fill-opacity="1"/><path d="M2284 722.538C2289.78 727.154 2292.67 733.308 2295.56 741 2297 734.846 2304.22 731.769 2310 727.154 2304.22 728.692 2297 727.154 2294.11 721" fill="#F4D589" fill-rule="evenodd" fill-opacity="1"/><path d="M2274 840C2294 852.387 2281.14 872.516 2289.71 888 2288.29 875.613 2292.57 867.871 2304 860.129" fill="#F4D589" fill-rule="evenodd" fill-opacity="1"/><path d="M2122 949C2127.73 941.5 2134.9 932.5 2140.63 925 2144.93 935.5 2154.97 940 2165 944.5" fill="#F4D589" fill-rule="evenodd" fill-opacity="1"/><path d="M1933 840C1923.08 849.31 1930.17 864.828 1924.5 872.586 1917.42 878.793 1906.08 875.69 1899 885 1903.25 867.931 1921.67 861.724 1927.33 843.104" fill="#F4D589" fill-rule="evenodd" fill-opacity="1"/><path d="M1804 949C1809.87 955 1820.13 955 1826 959.5 1821.6 964 1818.67 968.5 1814.27 973 1814.27 971.5 1814.27 970 1814.27 968.5" fill="#F4D589" fill-rule="evenodd" fill-opacity="1"/><path d="M1813.17 744C1810.39 756.286 1818.72 757.821 1822.89 763.964 1828.44 771.643 1832.61 777.786 1834 787 1828.44 777.786 1817.33 776.25 1809 773.178" fill="#F4D589" fill-rule="evenodd" fill-opacity="1"/><path d="M1890 674C1895.82 690.5 1916.18 678.5 1922 692 1914.73 692 1907.45 693.5 1903.09 698" fill="#F4D589" fill-rule="evenodd" fill-opacity="1"/><path d="M1658 1028C1663.72 1067.84 1680.89 1095.43 1712.37 1118.42 1732.41 1133.74 1834 1146 1819.69 1100.03 1805.38 1100.03 1791.07 1110.75 1773.9 1104.62 1756.73 1098.49 1749.58 1081.64 1745.28 1064.78 1725.25 1066.31 1706.65 1083.17 1685.19 1069.38 1670.88 1060.18 1673.74 1032.6 1663.72 1028" fill="#F4D589" fill-rule="evenodd" fill-opacity="1"/><path d="M1927.54 1027C1914.8 1033.11 1906.32 1033.11 1895 1037.68 1900.66 1046.84 1920.46 1049.89 1930.37 1051.42 1944.51 1054.47 1953 1056 1948.76 1034.63" fill="#F4D589" fill-rule="evenodd" fill-opacity="1"/><path d="M1712 888C1716.35 891 1719.25 895.5 1720.7 900 1726.5 895.5 1733.75 891 1741 889.5 1735.2 888 1727.95 888 1722.15 888" fill="#F4D589" fill-rule="evenodd" fill-opacity="1"/><path d="M2725 605.276C2747.99 605.276 2828.45 588.207 2844.25 611.483 2855.75 594.414 2883.05 602.172 2900.29 599.069 2924.71 594.414 2950.57 588.207 2975 582 2954.89 592.862 2933.33 611.483 2910.34 611.483 2895.98 611.483 2880.17 603.724 2864.37 606.828 2851.44 609.931 2842.82 623.897 2831.32 625.448 2824.14 627 2802.59 613.034 2791.09 611.483 2782.47 609.931 2772.41 609.931 2765.23 609.931" fill="#FFFFFF" fill-rule="evenodd" fill-opacity="1"/><path d="M2551 613C2568.04 614.5 2585.07 619 2603.53 617.5 2623.41 617.5 2646.12 610 2666 616 2647.54 616 2627.67 623.5 2610.63 634 2599.27 625 2583.65 625 2573.72 620.5" fill="#FFFFFF" fill-rule="evenodd" fill-opacity="1"/><path d="M2363.3 623.3C2397.72 623.3 2435.01 618.65 2468 614 2460.83 615.55 2457.96 621.75 2453.66 624.85 2445.05 629.5 2449.36 627.95 2440.75 629.5 2423.54 632.6 2413.5 632.6 2397.72 645 2391.99 629.5 2371.91 629.5 2359 627.95" fill="#FFFFFF" fill-rule="evenodd" fill-opacity="1"/><path d="M2039 619C2080.63 608 2110.78 611.143 2153.85 614.286 2192.61 617.429 2234.24 625.286 2273 623.714 2265.82 623.714 2257.21 625.286 2250.03 628.429 2245.72 631.572 2244.29 637.857 2239.98 637.857 2229.93 641 2206.96 628.429 2195.48 626.857 2173.94 625.286 2117.96 609.572 2102.17 631.572 2089.25 619 2050.48 615.857 2040.44 623.714" fill="#FFFFFF" fill-rule="evenodd" fill-opacity="1"/><path d="M1764 692C1779.75 664.609 1831.3 658.522 1858.5 643.304 1891.43 626.565 1917.2 623.522 1953 622 1938.68 626.565 1921.5 632.652 1911.48 644.826 1897.16 628.087 1849.91 649.391 1868.52 672.217 1851.34 658.522 1829.86 669.174 1814.11 676.783 1799.8 684.391 1784.05 687.435 1769.73 692" fill="#FFFFFF" fill-rule="evenodd" fill-opacity="1"/><path d="M1685.6 749C1628 804.029 1628 886.571 1640.96 963 1645.28 943.128 1639.52 920.2 1656.8 906.443 1632.32 898.8 1656.8 808.614 1666.88 788.743 1668.32 791.8 1671.2 791.8 1674.08 796.386 1676.96 774.986 1685.6 764.286 1700 750.529 1697.12 749 1697.12 750.529 1695.68 750.529" fill="#FFFFFF" fill-rule="evenodd" fill-opacity="1"/><path d="M1727.41 737C1726 724.429 1738.71 715 1750 715" fill="#FFFFFF" fill-rule="evenodd" fill-opacity="1"/><path d="M1881 677C1895 686.12 1890.33 701.32 1890.33 715" fill="#FFFFFF" fill-rule="evenodd" fill-opacity="1"/><path d="M2030.6 747C2025 762.312 2032 785.281 2039 796" fill="#FFFFFF" fill-rule="evenodd" fill-opacity="1"/><path d="M2039 648C2049.11 640.5 2063.56 636 2078 636" fill="#FFFFFF" fill-rule="evenodd" fill-opacity="1"/><path d="M2346 669C2347.41 655.2 2357.29 649.067 2370 646" fill="#FFFFFF" fill-rule="evenodd" fill-opacity="1"/><path d="M2536 653C2543.25 645.143 2554.85 642 2565 642" fill="#FFFFFF" fill-rule="evenodd" fill-opacity="1"/><path d="M2651 643.4C2665.19 637 2679.39 638.6 2695 645" fill="#FFFFFF" fill-rule="evenodd" fill-opacity="1"/><path d="M2445 776C2451.94 765.5 2454.72 756.5 2470 755" fill="#FFFFFF" fill-rule="evenodd" fill-opacity="1"/><path d="M2494 871C2499.85 883.267 2518.85 894 2532 892.467" fill="#FFFFFF" fill-rule="evenodd" fill-opacity="1"/><path d="M2283 831C2297.25 843.667 2322.9 850 2340 842.083" fill="#FFFFFF" fill-rule="evenodd" fill-opacity="1"/><path d="M2299 893C2301.76 876.133 2312.81 871.533 2328 870" fill="#FFFFFF" fill-rule="evenodd" fill-opacity="1"/><path d="M2308 761C2308 751.667 2308 739.222 2319 733" fill="#FFFFFF" fill-rule="evenodd" fill-opacity="1"/><path d="M2171 758C2162 771.628 2156 801.914 2163.5 811" fill="#FFFFFF" fill-rule="evenodd" fill-opacity="1"/><path d="M2199 692C2191 698.25 2191 707.625 2192.33 717" fill="#FFFFFF" fill-rule="evenodd" fill-opacity="1"/><path d="M2290 639C2299.8 631.5 2312.4 630 2325 636" fill="#FFFFFF" fill-rule="evenodd" fill-opacity="1"/><path d="M1978 630C1987.74 622 1998.87 623.6 2010 628.4" fill="#FFFFFF" fill-rule="evenodd" fill-opacity="1"/><path d="M1899 726C1903.27 710.445 1920.35 698 1936 698" fill="#FFFFFF" fill-rule="evenodd" fill-opacity="1"/><path d="M1793 804C1800.17 792.917 1813.09 785 1826 792.917" fill="#FFFFFF" fill-rule="evenodd" fill-opacity="1"/><path d="M1700.94 785C1698 773 1711.24 758 1723 758" fill="#FFFFFF" fill-rule="evenodd" fill-opacity="1"/><path d="M1726 934C1726 923.15 1731.71 903 1746 904.55" fill="#FFFFFF" fill-rule="evenodd" fill-opacity="1"/><path d="M1822.8 989C1820 979.769 1825.6 973.615 1834 969" fill="#FFFFFF" fill-rule="evenodd" fill-opacity="1"/><path d="M1904 895C1915.59 884.5 1930.07 880 1946 880" fill="#FFFFFF" fill-rule="evenodd" fill-opacity="1"/><path d="M2142.41 891C2141 904.714 2152.29 921.476 2165 923" fill="#FFFFFF" fill-rule="evenodd" fill-opacity="1"/><path d="M2600 799C2616.08 797.471 2627.77 788.294 2638 773" fill="#FFFFFF" fill-rule="evenodd" fill-opacity="1"/><path d="M2729 697C2740.43 706 2757.57 695.5 2769 688" fill="#FFFFFF" fill-rule="evenodd" fill-opacity="1"/><path d="M2864 631C2872.4 638.609 2878 655.348 2873.8 666" fill="#FFFFFF" fill-rule="evenodd" fill-opacity="1"/><path d="M2940 654C2949.96 660 2965.62 660 2977 655.5" fill="#FFFFFF" fill-rule="evenodd" fill-opacity="1"/><path d="M2940 683C2932.67 692.375 2929.73 708 2918 708" fill="#FFFFFF" fill-rule="evenodd" fill-opacity="1"/><path d="M2723 625C2715.14 628.111 2712 632.778 2712 639" fill="#FFFFFF" fill-rule="evenodd" fill-opacity="1"/><path d="M1767.41 1076C1766 1094 1787.14 1089.5 1797 1085" fill="#FFFFFF" fill-rule="evenodd" fill-opacity="1"/><path d="M1824.41 1058C1823 1076.22 1832.88 1091.41 1847 1099" fill="#FFFFFF" fill-rule="evenodd" fill-opacity="1"/><path d="M1967.33 1036C1963 1046.67 1968.78 1060.38 1976 1068" fill="#FFFFFF" fill-rule="evenodd" fill-opacity="1"/><path d="M2283.95 859C2292.56 888.155 2262.41 900.431 2243.74 911.172 2232.26 918.845 2222.21 928.052 2209.28 934.19 2200.67 937.259 2189.18 937.259 2182 943.397 2200.67 948 2233.69 938.793 2255.23 934.19 2266.72 932.655 2279.64 931.121 2289.69 923.448 2286.82 911.172 2279.64 882.017 2294 872.81" fill="#F4D589" fill-rule="evenodd" fill-opacity="1"/><path d="M2286.67 871C2289.56 892.389 2293.89 901.556 2304 916.833 2296.78 921.417 2280.89 926 2278 916.833" fill="#F4D589" fill-rule="evenodd" fill-opacity="1"/><path d="M2450 913.923C2470.1 917 2506 890.846 2475.85 877 2485.9 893.923 2462.92 898.538 2457.18 909.308" fill="#F4D589" fill-rule="evenodd" fill-opacity="1"/><path d="M2597.62 819.115C2609.08 820.635 2614.81 813.038 2624.84 810 2627.7 817.596 2621.97 822.154 2623.41 828.231 2623.41 837.346 2627.7 843.423 2627.7 851.019 2632 879.885 2599.05 884.442 2579 889 2591.89 879.885 2613.38 869.25 2610.51 846.461 2610.51 838.865 2603.35 825.192 2594.76 823.673" fill="#F4D589" fill-rule="evenodd" fill-opacity="1"/><path d="M2733.57 718.143C2742.14 722.75 2749.29 712 2757.86 716.607 2763.57 721.214 2769.29 735.036 2770.71 742.714 2772.14 751.928 2775 770.357 2769.29 778.036 2762.14 791.857 2737.86 791.857 2725 798 2742.14 790.321 2763.57 773.428 2762.14 750.393 2759.29 724.286 2735 736.571 2732.14 718.143" fill="#F4D589" fill-rule="evenodd" fill-opacity="1"/><path d="M2771.35 741C2772.78 753.445 2784.26 753.445 2787.13 762.778 2790 775.222 2765.61 779.889 2757 783" fill="#F4D589" fill-rule="evenodd" fill-opacity="1"/><path d="M2022 622C2026.27 628.222 2033.38 632.889 2039.08 636 2044.77 631.333 2051.88 629.778 2059 628.222 2049.04 628.222 2039.08 629.778 2029.12 628.222" fill="#F4D589" fill-rule="evenodd" fill-opacity="1"/><path d="M2340 628C2344.25 634.182 2347.08 640.364 2352.75 645 2357 635.727 2368.33 634.182 2374 635.727 2364.08 634.182 2354.17 629.545 2345.67 629.545" fill="#F4D589" fill-rule="evenodd" fill-opacity="1"/><path d="M1901.43 1038.49C1904.3 1035.47 1912.91 1032.45 1914.35 1029.43 1917.21 1026.41 1920.08 1023.39 1922.95 1021.88 1927.26 1018.86 1932.99 1015.84 1938.73 1014.33 1948.77 1011.31 1958.82 1014.33 1967.42 1005.27 1976.03 997.725 1983.2 990.176 1993.24 985.647 2004.72 981.117 2016.2 979.608 2026.24 976.588 2036.28 973.568 2046.32 970.549 2056.36 967.529 2066.4 964.51 2073.58 963 2083.62 963 2093.66 964.51 2103.7 967.529 2113.74 969.039 2119.48 970.549 2133.83 969.039 2138.13 973.568 2141 978.098 2139.57 991.686 2138.13 996.216 2138.13 1002.25 2138.13 1008.29 2136.7 1014.33 2135.26 1020.37 2130.96 1024.9 2128.09 1029.43 2128.09 1018.86 2128.09 1006.78 2119.48 997.725 2112.31 990.176 2099.4 985.647 2087.92 985.647 2069.27 985.647 2044.89 988.667 2026.24 997.725 2017.63 1002.25 2007.59 1003.76 1997.55 1008.29 1984.64 1012.82 1970.29 1014.33 1958.82 1018.86 1953.08 1020.37 1951.64 1023.39 1947.34 1027.92 1943.04 1032.45 1940.17 1029.43 1935.86 1032.45 1930.12 1035.47 1922.95 1038.49 1917.21 1040 1912.91 1040 1902.87 1038.49 1900 1040" fill="#DEC26F" fill-rule="evenodd" fill-opacity="1"/><path d="M2148 961.286C2163.8 966 2183.91 961.286 2199.7 959.714 2216.94 959.714 2232.74 958.143 2249.97 958.143 2267.21 956.571 2284.44 958.143 2301.68 956.571 2321.79 955 2340.46 948.714 2362 944 2336.15 956.571 2304.55 948.714 2278.7 947.143 2261.46 945.571 2247.1 948.714 2231.3 951.857 2219.81 955 2205.45 958.143 2193.96 956.571" fill="#DEC26F" fill-rule="evenodd" fill-opacity="1"/><path d="M2653.61 854.317C2676.58 832.805 2705.29 809.756 2734 799 2726.82 799 2718.21 805.146 2709.6 808.219 2700.98 811.293 2690.94 814.366 2682.32 817.439 2672.27 822.049 2669.4 828.195 2663.66 835.878 2659.35 838.951 2656.48 843.561 2653.61 848.171 2650.74 852.781 2649.31 860.464 2645 862" fill="#DEC26F" fill-rule="evenodd" fill-opacity="1"/><path d="M1711 1118.1C1728.17 1122.75 1742.47 1133.6 1759.64 1138.25 1778.23 1142.9 1795.4 1142.9 1815.42 1144.45 1834.02 1146 1852.62 1146 1871.21 1141.35 1881.23 1136.7 1889.81 1133.6 1899.82 1130.5 1908.4 1125.85 1918.42 1119.65 1927 1115 1886.95 1133.6 1865.49 1136.7 1826.87 1136.7 1816.85 1138.25 1788.24 1135.15 1779.66 1132.05 1766.79 1130.5 1758.21 1128.95 1746.76 1125.85 1735.32 1122.75 1721.01 1119.65 1711 1115" fill="#DEC26F" fill-rule="evenodd" fill-opacity="1"/><path d="M1692.22 737.052C1636.38 756.93 1627.79 844.09 1626.36 865.497 1623.5 883.847 1624.93 941.953 1627.79 960.303 1630.66 978.652 1652.13 995.472 1652.13 1016.88 1653.56 1041.35 1656.43 1044.4 1665.02 1065.81 1682.2 1114.74 1719.42 1139.21 1768.09 1148.38 1792.43 1152.97 1806.74 1152.97 1832.51 1154.5 1842.53 1154.5 1858.28 1152.97 1869.73 1149.91 1884.05 1146.85 1891.21 1143.8 1904.09 1139.21 1918.41 1134.62 1931.29 1133.09 1944.18 1126.98 1968.51 1113.21 1971.38 1116.27 1997.14 1111.68 2025.78 1107.1 2044.39 1087.22 2065.86 1073.46 2084.47 1062.75 2095.92 1056.64 2115.97 1044.4 2133.15 1033.7 2150.32 987.827 2138.87 969.477 2141.74 972.536 2141.74 972.536 2141.74 972.536 2166.07 972.536 2190.41 971.006 2216.18 969.477 2269.15 967.948 2332.14 966.419 2383.67 951.128 2415.17 941.953 2450.96 934.308 2483.89 932.779 2519.68 931.249 2542.58 922.075 2578.37 911.371 2631.34 896.08 2684.31 831.857 2734.41 816.566 2745.87 811.978 2760.18 801.275 2773.07 796.687 2783.09 793.629 2795.97 793.629 2805.99 790.571 2830.33 782.925 2887.59 758.459 2909.07 747.756 2947.72 730.935 3046.5 666.713 3027.89 581.082 3022.16 550.5 2967.76 564.262 2920.52 581.082 2887.59 593.315 2841.78 588.728 2805.99 588.728 2775.93 588.728 2760.18 590.257 2731.55 591.786 2710.08 591.786 2690.03 596.373 2668.56 597.902 2645.66 597.902 2634.2 605.548 2611.3 608.606 2585.53 611.664 2552.6 604.019 2525.4 600.961 2495.34 597.902 2452.39 600.961 2420.9 608.606 2363.63 620.839 2296.35 616.252 2233.36 611.664 2167.5 608.606 2111.67 596.373 2045.82 607.077 1989.99 616.252 1909.82 605.548 1858.28 636.13 1838.24 648.363 1782.41 663.654 1765.23 678.945 1740.89 701.882 1715.12 715.644 1690.78 737.052" stroke="#333333" stroke-width="2.86476" stroke-linecap="round" stroke-linejoin="round" stroke-miterlimit="10" stroke-opacity="1" fill="none" fill-rule="evenodd"/><path d="M2264.5 831.5C2290.38 855.848 2320.56 866.5 2356.5 852.804" stroke="#BE8E03" stroke-width="2.86476" stroke-linecap="round" stroke-linejoin="round" stroke-miterlimit="10" stroke-opacity="1" fill="none" fill-rule="evenodd"/><path d="M2305.5 859.5C2294.59 867.109 2290.5 880.804 2291.86 894.5" stroke="#BE8E03" stroke-width="2.86476" stroke-linecap="round" stroke-linejoin="round" stroke-miterlimit="10" stroke-opacity="1" fill="none" fill-rule="evenodd"/><path d="M2453.71 701.5C2466.5 724.682 2456.55 752.5 2439.5 769.5" stroke="#BE8E03" stroke-width="2.86476" stroke-linecap="round" stroke-linejoin="round" stroke-miterlimit="10" stroke-opacity="1" fill="none" fill-rule="evenodd"/><path d="M2456.5 740.5C2467.98 742 2480.89 745 2489.5 752.5" stroke="#BE8E03" stroke-width="2.86476" stroke-linecap="round" stroke-linejoin="round" stroke-miterlimit="10" stroke-opacity="1" fill="none" fill-rule="evenodd"/><path d="M2583.5 813.937C2609.33 815.5 2649.5 798.312 2648.07 765.5" stroke="#BE8E03" stroke-width="2.86476" stroke-linecap="round" stroke-linejoin="round" stroke-miterlimit="10" stroke-opacity="1" fill="none" fill-rule="evenodd"/><path d="M2631.5 802.5C2637.5 813.457 2637.5 825.978 2631.5 838.5" stroke="#BE8E03" stroke-width="2.86476" stroke-linecap="round" stroke-linejoin="round" stroke-miterlimit="10" stroke-opacity="1" fill="none" fill-rule="evenodd"/><path d="M2639.5 642.25C2655.39 628.188 2694.39 623.5 2704.5 648.5" stroke="#BE8E03" stroke-width="2.86476" stroke-linecap="round" stroke-linejoin="round" stroke-miterlimit="10" stroke-opacity="1" fill="none" fill-rule="evenodd"/><path d="M2695.5 636.5C2698.43 625.3 2705.77 620.5 2717.5 620.5" stroke="#BE8E03" stroke-width="2.86476" stroke-linecap="round" stroke-linejoin="round" stroke-miterlimit="10" stroke-opacity="1" fill="none" fill-rule="evenodd"/><path d="M2717.5 705.167C2738.83 720.5 2778.66 703.633 2781.5 674.5" stroke="#BE8E03" stroke-width="2.86476" stroke-linecap="round" stroke-linejoin="round" stroke-miterlimit="10" stroke-opacity="1" fill="none" fill-rule="evenodd"/><path d="M2761.5 706.5C2774.25 712.682 2778.5 726.591 2775.67 740.5" stroke="#BE8E03" stroke-width="2.86476" stroke-linecap="round" stroke-linejoin="round" stroke-miterlimit="10" stroke-opacity="1" fill="none" fill-rule="evenodd"/><path d="M2904.5 714.435C2930.73 720.5 2951.13 697.758 2955.5 673.5" stroke="#BE8E03" stroke-width="2.86476" stroke-linecap="round" stroke-linejoin="round" stroke-miterlimit="10" stroke-opacity="1" fill="none" fill-rule="evenodd"/><path d="M2936.5 663.731C2953.55 674.5 2979.13 669.885 2990.5 654.5" stroke="#BE8E03" stroke-width="2.86476" stroke-linecap="round" stroke-linejoin="round" stroke-miterlimit="10" stroke-opacity="1" fill="none" fill-rule="evenodd"/><path d="M2866.5 619.5C2880.5 630.113 2887.5 648.306 2880.5 666.5" stroke="#BE8E03" stroke-width="2.86476" stroke-linecap="round" stroke-linejoin="round" stroke-miterlimit="10" stroke-opacity="1" fill="none" fill-rule="evenodd"/><path d="M2883.5 641.5C2887.79 632.167 2893.5 627.5 2903.5 629.055" stroke="#BE8E03" stroke-width="2.86476" stroke-linecap="round" stroke-linejoin="round" stroke-miterlimit="10" stroke-opacity="1" fill="none" fill-rule="evenodd"/><path d="M2422.5 920.293C2446.61 938.5 2490.57 921.81 2500.5 894.5" stroke="#BE8E03" stroke-width="2.86476" stroke-linecap="round" stroke-linejoin="round" stroke-miterlimit="10" stroke-opacity="1" fill="none" fill-rule="evenodd"/><path d="M2486.5 875.5C2496.61 888 2509.61 900.5 2525.5 897.375" stroke="#BE8E03" stroke-width="2.86476" stroke-linecap="round" stroke-linejoin="round" stroke-miterlimit="10" stroke-opacity="1" fill="none" fill-rule="evenodd"/><path d="M2276.5 639.382C2299.36 619.5 2336.5 619.5 2356.5 645.5" stroke="#BE8E03" stroke-width="2.86476" stroke-linecap="round" stroke-linejoin="round" stroke-miterlimit="10" stroke-opacity="1" fill="none" fill-rule="evenodd"/><path d="M2383.5 639.18C2360.79 634.5 2345.18 646.98 2339.5 673.5" stroke="#BE8E03" stroke-width="2.86476" stroke-linecap="round" stroke-linejoin="round" stroke-miterlimit="10" stroke-opacity="1" fill="none" fill-rule="evenodd"/><path d="M2055.5 932.735C2074.13 972.5 2122.87 943.441 2141.5 920.5" stroke="#BE8E03" stroke-width="2.86476" stroke-linecap="round" stroke-linejoin="round" stroke-miterlimit="10" stroke-opacity="1" fill="none" fill-rule="evenodd"/><path d="M2135.5 900.5C2139.88 918.722 2151.58 941.5 2173.5 935.426" stroke="#BE8E03" stroke-width="2.86476" stroke-linecap="round" stroke-linejoin="round" stroke-miterlimit="10" stroke-opacity="1" fill="none" fill-rule="evenodd"/><path d="M2164.5 749.5C2154.58 769.283 2147.5 801.239 2161.67 819.5" stroke="#BE8E03" stroke-width="2.86476" stroke-linecap="round" stroke-linejoin="round" stroke-miterlimit="10" stroke-opacity="1" fill="none" fill-rule="evenodd"/><path d="M2152.5 787.5C2139.64 772.237 2122.5 758.5 2102.5 763.079" stroke="#BE8E03" stroke-width="2.86476" stroke-linecap="round" stroke-linejoin="round" stroke-miterlimit="10" stroke-opacity="1" fill="none" fill-rule="evenodd"/><path d="M1966.5 633.26C1988.17 600.5 2021.39 625.46 2044.5 639.5" stroke="#BE8E03" stroke-width="2.86476" stroke-linecap="round" stroke-linejoin="round" stroke-miterlimit="10" stroke-opacity="1" fill="none" fill-rule="evenodd"/><path d="M2028.5 650.5C2045.68 631.9 2071.45 619.5 2091.5 642.75" stroke="#BE8E03" stroke-width="2.86476" stroke-linecap="round" stroke-linejoin="round" stroke-miterlimit="10" stroke-opacity="1" fill="none" fill-rule="evenodd"/><path d="M1751.5 706.5C1727.47 706.5 1710.5 724.9 1713.33 752.5" stroke="#BE8E03" stroke-width="2.86476" stroke-linecap="round" stroke-linejoin="round" stroke-miterlimit="10" stroke-opacity="1" fill="none" fill-rule="evenodd"/><path d="M1733.5 752.184C1709.06 741.5 1687.5 776.605 1688.94 799.5" stroke="#BE8E03" stroke-width="2.86476" stroke-linecap="round" stroke-linejoin="round" stroke-miterlimit="10" stroke-opacity="1" fill="none" fill-rule="evenodd"/><path d="M1810.1 730.5C1818.5 756.567 1805.9 788.767 1783.5 799.5" stroke="#BE8E03" stroke-width="2.86476" stroke-linecap="round" stroke-linejoin="round" stroke-miterlimit="10" stroke-opacity="1" fill="none" fill-rule="evenodd"/><path d="M1807.5 775.5C1827.72 772.5 1846.5 786 1846.5 808.5" stroke="#BE8E03" stroke-width="2.86476" stroke-linecap="round" stroke-linejoin="round" stroke-miterlimit="10" stroke-opacity="1" fill="none" fill-rule="evenodd"/><path d="M1883.5 668.5C1899.13 682.122 1910.5 709.365 1892.03 724.5" stroke="#BE8E03" stroke-width="2.86476" stroke-linecap="round" stroke-linejoin="round" stroke-miterlimit="10" stroke-opacity="1" fill="none" fill-rule="evenodd"/><path d="M1899.5 705.5C1910.93 694.3 1925.21 689.5 1939.5 692.7" stroke="#BE8E03" stroke-width="2.86476" stroke-linecap="round" stroke-linejoin="round" stroke-miterlimit="10" stroke-opacity="1" fill="none" fill-rule="evenodd"/><path d="M1895.5 986.206C1918.26 1001.5 1956.66 978.559 1959.5 949.5" stroke="#BE8E03" stroke-width="2.86476" stroke-linecap="round" stroke-linejoin="round" stroke-miterlimit="10" stroke-opacity="1" fill="none" fill-rule="evenodd"/><path d="M1939.5 935.5C1948.05 966.5 1987.97 952.55 2006.5 937.05" stroke="#BE8E03" stroke-width="2.86476" stroke-linecap="round" stroke-linejoin="round" stroke-miterlimit="10" stroke-opacity="1" fill="none" fill-rule="evenodd"/><path d="M1896.5 900.5C1900.83 872 1938.31 870.5 1958.5 876.5" stroke="#BE8E03" stroke-width="2.86476" stroke-linecap="round" stroke-linejoin="round" stroke-miterlimit="10" stroke-opacity="1" fill="none" fill-rule="evenodd"/><path d="M1927.5 870.5C1927.5 856.413 1930.41 839.196 1943.5 834.5" stroke="#BE8E03" stroke-width="2.86476" stroke-linecap="round" stroke-linejoin="round" stroke-miterlimit="10" stroke-opacity="1" fill="none" fill-rule="evenodd"/><path d="M2022.5 752.5C2015.5 770.682 2019.7 791.894 2036.5 802.5" stroke="#BE8E03" stroke-width="2.86476" stroke-linecap="round" stroke-linejoin="round" stroke-miterlimit="10" stroke-opacity="1" fill="none" fill-rule="evenodd"/><path d="M2022.5 781.5C2012.32 781.5 2000.68 781.5 1990.5 784.5" stroke="#BE8E03" stroke-width="2.86476" stroke-linecap="round" stroke-linejoin="round" stroke-miterlimit="10" stroke-opacity="1" fill="none" fill-rule="evenodd"/><path d="M1657.34 963.5C1641.5 990.891 1645.82 1024.37 1677.5 1033.5" stroke="#BE8E03" stroke-width="2.86476" stroke-linecap="round" stroke-linejoin="round" stroke-miterlimit="10" stroke-opacity="1" fill="none" fill-rule="evenodd"/><path d="M1679.73 1007.5C1675.35 1024.29 1669.5 1054.82 1688.5 1065.5" stroke="#BE8E03" stroke-width="2.86476" stroke-linecap="round" stroke-linejoin="round" stroke-miterlimit="10" stroke-opacity="1" fill="none" fill-rule="evenodd"/><path d="M1707.5 885.5C1725.04 897.614 1726.5 920.329 1716.27 938.5" stroke="#BE8E03" stroke-width="2.86476" stroke-linecap="round" stroke-linejoin="round" stroke-miterlimit="10" stroke-opacity="1" fill="none" fill-rule="evenodd"/><path d="M1721.5 906.5C1730.07 898.643 1741.5 895.5 1751.5 897.071" stroke="#BE8E03" stroke-width="2.86476" stroke-linecap="round" stroke-linejoin="round" stroke-miterlimit="10" stroke-opacity="1" fill="none" fill-rule="evenodd"/><path d="M1754.5 1081.5C1770.25 1113.5 1803.17 1105.88 1827.5 1090.64" stroke="#BE8E03" stroke-width="2.86476" stroke-linecap="round" stroke-linejoin="round" stroke-miterlimit="10" stroke-opacity="1" fill="none" fill-rule="evenodd"/><path d="M1818.5 1068.5C1818.5 1083.95 1825.64 1096.32 1838.5 1102.5" stroke="#BE8E03" stroke-width="2.86476" stroke-linecap="round" stroke-linejoin="round" stroke-miterlimit="10" stroke-opacity="1" fill="none" fill-rule="evenodd"/><path d="M1798.5 944.5C1811.36 958.409 1818.5 976.955 1812.79 995.5" stroke="#BE8E03" stroke-width="2.86476" stroke-linecap="round" stroke-linejoin="round" stroke-miterlimit="10" stroke-opacity="1" fill="none" fill-rule="evenodd"/><path d="M1816.5 973.5C1820.79 966.357 1827.93 963.5 1836.5 963.5" stroke="#BE8E03" stroke-width="2.86476" stroke-linecap="round" stroke-linejoin="round" stroke-miterlimit="10" stroke-opacity="1" fill="none" fill-rule="evenodd"/><path d="M2280.5 718.5C2296.31 726.081 2303.5 750.339 2297.75 765.5" stroke="#BE8E03" stroke-width="2.86476" stroke-linecap="round" stroke-linejoin="round" stroke-miterlimit="10" stroke-opacity="1" fill="none" fill-rule="evenodd"/><path d="M2297.5 743.5C2300.33 735.375 2306 730.5 2314.5 730.5" stroke="#BE8E03" stroke-width="2.86476" stroke-linecap="round" stroke-linejoin="round" stroke-miterlimit="10" stroke-opacity="1" fill="none" fill-rule="evenodd"/><path d="M2483.5 624.1C2499.36 605.5 2538.29 611.7 2545.5 636.5" stroke="#BE8E03" stroke-width="2.86476" stroke-linecap="round" stroke-linejoin="round" stroke-miterlimit="10" stroke-opacity="1" fill="none" fill-rule="evenodd"/><path d="M2531.5 646.5C2540 636.389 2552.75 633.5 2565.5 634.945" stroke="#BE8E03" stroke-width="2.86476" stroke-linecap="round" stroke-linejoin="round" stroke-miterlimit="10" stroke-opacity="1" fill="none" fill-rule="evenodd"/><path d="M2167.5 662.5C2181.35 676.128 2185.5 695.814 2182.73 715.5" stroke="#BE8E03" stroke-width="2.86476" stroke-linecap="round" stroke-linejoin="round" stroke-miterlimit="10" stroke-opacity="1" fill="none" fill-rule="evenodd"/><path d="M2182.5 689.5C2189.69 685 2198.31 683.5 2205.5 683.5" stroke="#BE8E03" stroke-width="2.86476" stroke-linecap="round" stroke-linejoin="round" stroke-miterlimit="10" stroke-opacity="1" fill="none" fill-rule="evenodd"/><path d="M2052.5 1050.32C2071.02 1056.5 2098.08 1044.14 2099.5 1022.5" stroke="#BE8E03" stroke-width="2.86476" stroke-linecap="round" stroke-linejoin="round" stroke-miterlimit="10" stroke-opacity="1" fill="none" fill-rule="evenodd"/><path d="M2048.17 1022.5C2055.5 1039.42 2049.63 1056.35 2033.5 1062.5" stroke="#BE8E03" stroke-width="2.86476" stroke-linecap="round" stroke-linejoin="round" stroke-miterlimit="10" stroke-opacity="1" fill="none" fill-rule="evenodd"/><path d="M1959.1 1038.5C1953.5 1052.18 1956.3 1067.38 1967.5 1076.5" stroke="#BE8E03" stroke-width="2.86476" stroke-linecap="round" stroke-linejoin="round" stroke-miterlimit="10" stroke-opacity="1" fill="none" fill-rule="evenodd"/><path d="M1956.5 1058.5C1947.97 1060 1938.03 1063 1929.5 1067.5" stroke="#BE8E03" stroke-width="2.86476" stroke-linecap="round" stroke-linejoin="round" stroke-miterlimit="10" stroke-opacity="1" fill="none" fill-rule="evenodd"/><path d="M1895.5 1037.98C1912.67 1039.5 1915.53 1025.82 1928.41 1018.22 1939.86 1012.14 1951.31 1015.18 1961.33 1010.62 1972.78 1006.06 1978.5 993.9 1989.95 987.82 1997.1 984.78 2008.55 984.78 2015.71 981.74 2037.17 972.62 2061.5 965.02 2084.4 965.02 2104.43 963.5 2124.47 974.14 2144.5 971.1" stroke="#333333" stroke-width="2.86476" stroke-linecap="round" stroke-linejoin="round" stroke-miterlimit="10" stroke-opacity="1" fill="none" fill-rule="evenodd"/><path d="M1840.33 807C1843.11 803.941 1857 797.824 1855.61 791.706 1852.83 781 1834.78 793.235 1832 796.294" stroke="#FEE8B0" stroke-width="5.72917" stroke-linecap="butt" stroke-linejoin="miter" stroke-miterlimit="8" stroke-opacity="1" fill="none" fill-rule="evenodd"/><path d="M2022 802C2026.12 800.6 2028.87 799.2 2033 795" stroke="#FEE8B0" stroke-width="5.72917" stroke-linecap="butt" stroke-linejoin="miter" stroke-miterlimit="8" stroke-opacity="1" fill="none" fill-rule="evenodd"/><path d="M2110.95 752.053C2101 778 2128 768.842 2125.16 749" stroke="#FEE8B0" stroke-width="5.72917" stroke-linecap="butt" stroke-linejoin="miter" stroke-miterlimit="8" stroke-opacity="1" fill="none" fill-rule="evenodd"/><path d="M2177 710C2181.2 707.333 2185.4 706 2191 706" stroke="#FEE8B0" stroke-width="5.72917" stroke-linecap="butt" stroke-linejoin="miter" stroke-miterlimit="8" stroke-opacity="1" fill="none" fill-rule="evenodd"/><path d="M2177 657C2174.2 661.714 2171.4 664.857 2170 668" stroke="#FEE8B0" stroke-width="5.72917" stroke-linecap="butt" stroke-linejoin="miter" stroke-miterlimit="8" stroke-opacity="1" fill="none" fill-rule="evenodd"/><path d="M2087 631.5C2087 639 2083.86 645 2076 645 2077.57 639 2077.57 633 2079.14 627" stroke="#FEE8B0" stroke-width="5.72917" stroke-linecap="butt" stroke-linejoin="miter" stroke-miterlimit="8" stroke-opacity="1" fill="none" fill-rule="evenodd"/><path d="M2026 642C2028.8 645.2 2030.2 646.8 2033 650" stroke="#FEE8B0" stroke-width="5.72917" stroke-linecap="butt" stroke-linejoin="miter" stroke-miterlimit="8" stroke-opacity="1" fill="none" fill-rule="evenodd"/><path d="M1965 622C1969.12 625 1973.25 629.5 1976 634" stroke="#FEE8B0" stroke-width="5.72917" stroke-linecap="butt" stroke-linejoin="miter" stroke-miterlimit="8" stroke-opacity="1" fill="none" fill-rule="evenodd"/><path d="M1880 674C1884.5 672.5 1887.5 669.5 1892 665" stroke="#FEE8B0" stroke-width="5.72917" stroke-linecap="butt" stroke-linejoin="miter" stroke-miterlimit="8" stroke-opacity="1" fill="none" fill-rule="evenodd"/><path d="M1932 685C1933 688 1933 691 1933 694" stroke="#FEE8B0" stroke-width="5.72917" stroke-linecap="butt" stroke-linejoin="miter" stroke-miterlimit="8" stroke-opacity="1" fill="none" fill-rule="evenodd"/><path d="M1890 718C1891.6 721 1894.8 722.5 1898 724" stroke="#FEE8B0" stroke-width="5.72917" stroke-linecap="butt" stroke-linejoin="miter" stroke-miterlimit="8" stroke-opacity="1" fill="none" fill-rule="evenodd"/><path d="M1823 733C1815.67 734.555 1806.87 734.555 1801 739.222 1803.93 747 1814.2 747 1823 745.444" stroke="#FEE8B0" stroke-width="5.72917" stroke-linecap="butt" stroke-linejoin="miter" stroke-miterlimit="8" stroke-opacity="1" fill="none" fill-rule="evenodd"/><path d="M1786 808C1777 796.235 1784.5 783 1792 796.235" stroke="#FEE8B0" stroke-width="5.72917" stroke-linecap="butt" stroke-linejoin="miter" stroke-miterlimit="8" stroke-opacity="1" fill="none" fill-rule="evenodd"/><path d="M1686 791.5C1695.8 802 1707 785.5 1687.4 781" stroke="#FEE8B0" stroke-width="5.72917" stroke-linecap="butt" stroke-linejoin="miter" stroke-miterlimit="8" stroke-opacity="1" fill="none" fill-rule="evenodd"/><path d="M1724 753C1725.5 751.6 1727 748.8 1730 746" stroke="#FEE8B0" stroke-width="5.72917" stroke-linecap="butt" stroke-linejoin="miter" stroke-miterlimit="8" stroke-opacity="1" fill="none" fill-rule="evenodd"/><path d="M1747.11 700C1750 709 1745.67 715 1738.44 710.5 1737 709 1738.44 709 1739.89 706" stroke="#FEE8B0" stroke-width="5.72917" stroke-linecap="butt" stroke-linejoin="miter" stroke-miterlimit="8" stroke-opacity="1" fill="none" fill-rule="evenodd"/><path d="M1793 950C1797.33 950 1801.67 947.2 1806 943" stroke="#FEE8B0" stroke-width="5.72917" stroke-linecap="butt" stroke-linejoin="miter" stroke-miterlimit="8" stroke-opacity="1" fill="none" fill-rule="evenodd"/><path d="M1714 930.733C1722.73 943 1730 927.667 1714 920" stroke="#FEE8B0" stroke-width="5.72917" stroke-linecap="butt" stroke-linejoin="miter" stroke-miterlimit="8" stroke-opacity="1" fill="none" fill-rule="evenodd"/><path d="M1744 902C1744 897.333 1745.67 892.667 1749 888" stroke="#FEE8B0" stroke-width="5.72917" stroke-linecap="butt" stroke-linejoin="miter" stroke-miterlimit="8" stroke-opacity="1" fill="none" fill-rule="evenodd"/><path d="M1704 894C1708.2 892.5 1712.4 889.5 1718 885" stroke="#FEE8B0" stroke-width="5.72917" stroke-linecap="butt" stroke-linejoin="miter" stroke-miterlimit="8" stroke-opacity="1" fill="none" fill-rule="evenodd"/><path d="M1651 963C1672 973.706 1646.8 989 1644 972.176" stroke="#FEE8B0" stroke-width="5.72917" stroke-linecap="butt" stroke-linejoin="miter" stroke-miterlimit="8" stroke-opacity="1" fill="none" fill-rule="evenodd"/><path d="M1669.83 1008C1675.5 1008 1682.58 1012.67 1684 1018.89 1678.33 1022 1671.25 1020.44 1667 1017.33" stroke="#FEE8B0" stroke-width="5.72917" stroke-linecap="butt" stroke-linejoin="miter" stroke-miterlimit="8" stroke-opacity="1" fill="none" fill-rule="evenodd"/><path d="M1757 1090C1758.5 1088.4 1760 1085.2 1763 1082" stroke="#FEE8B0" stroke-width="5.72917" stroke-linecap="butt" stroke-linejoin="miter" stroke-miterlimit="8" stroke-opacity="1" fill="none" fill-rule="evenodd"/><path d="M1832 1100C1834.67 1100 1837.33 1097 1840 1094" stroke="#FEE8B0" stroke-width="5.72917" stroke-linecap="butt" stroke-linejoin="miter" stroke-miterlimit="8" stroke-opacity="1" fill="none" fill-rule="evenodd"/><path d="M1955 1044C1956.4 1045 1959.2 1045 1962 1044" stroke="#FEE8B0" stroke-width="5.72917" stroke-linecap="butt" stroke-linejoin="miter" stroke-miterlimit="8" stroke-opacity="1" fill="none" fill-rule="evenodd"/><path d="M1935 1060C1935 1063.33 1937.67 1068.33 1939 1070" stroke="#FEE8B0" stroke-width="5.72917" stroke-linecap="butt" stroke-linejoin="miter" stroke-miterlimit="8" stroke-opacity="1" fill="none" fill-rule="evenodd"/><path d="M2002 943C1997.5 939.75 1993 934.875 1990 930" stroke="#FEE8B0" stroke-width="5.72917" stroke-linecap="butt" stroke-linejoin="miter" stroke-miterlimit="8" stroke-opacity="1" fill="none" fill-rule="evenodd"/><path d="M1935 944.231C1942.14 941.308 1947.86 935.461 1953.57 934 1955 941.308 1949.29 947.154 1943.57 953" stroke="#FEE8B0" stroke-width="5.72917" stroke-linecap="butt" stroke-linejoin="miter" stroke-miterlimit="8" stroke-opacity="1" fill="none" fill-rule="evenodd"/><path d="M1953 865C1950.33 871.182 1949 877.364 1950.33 882" stroke="#FEE8B0" stroke-width="5.72917" stroke-linecap="butt" stroke-linejoin="miter" stroke-miterlimit="8" stroke-opacity="1" fill="none" fill-rule="evenodd"/><path d="M1933 830C1934.4 837.5 1940 842 1947 845" stroke="#FEE8B0" stroke-width="5.72917" stroke-linecap="butt" stroke-linejoin="miter" stroke-miterlimit="8" stroke-opacity="1" fill="none" fill-rule="evenodd"/><path d="M1804 987C1807 989 1811.5 989 1816 989" stroke="#FEE8B0" stroke-width="5.72917" stroke-linecap="butt" stroke-linejoin="miter" stroke-miterlimit="8" stroke-opacity="1" fill="none" fill-rule="evenodd"/><path d="M1834 964C1830.25 960.857 1829 957.714 1831.5 953" stroke="#FEE8B0" stroke-width="5.72917" stroke-linecap="butt" stroke-linejoin="miter" stroke-miterlimit="8" stroke-opacity="1" fill="none" fill-rule="evenodd"/><path d="M1896 993C1901.78 986.818 1904.67 980.636 1909 976" stroke="#FEE8B0" stroke-width="5.72917" stroke-linecap="butt" stroke-linejoin="miter" stroke-miterlimit="8" stroke-opacity="1" fill="none" fill-rule="evenodd"/><path d="M2056 937.692C2060.36 934.615 2066.18 931.538 2070.55 930 2072 937.692 2069.09 943.846 2067.64 950" stroke="#FEE8B0" stroke-width="5.72917" stroke-linecap="butt" stroke-linejoin="miter" stroke-miterlimit="8" stroke-opacity="1" fill="none" fill-rule="evenodd"/><path d="M2042 1058C2037.8 1056.33 2036.4 1053 2035 1048" stroke="#FEE8B0" stroke-width="5.72917" stroke-linecap="butt" stroke-linejoin="miter" stroke-miterlimit="8" stroke-opacity="1" fill="none" fill-rule="evenodd"/><path d="M2264 837.706C2268.38 834.647 2271.31 830.059 2275.69 827 2283 834.647 2275.69 846.882 2268.38 853" stroke="#FEE8B0" stroke-width="5.72917" stroke-linecap="butt" stroke-linejoin="miter" stroke-miterlimit="8" stroke-opacity="1" fill="none" fill-rule="evenodd"/><path d="M2349.6 865C2351 858.846 2351 852.692 2351 845 2342.6 846.538 2337 857.308 2342.6 865" stroke="#FEE8B0" stroke-width="5.72917" stroke-linecap="butt" stroke-linejoin="miter" stroke-miterlimit="8" stroke-opacity="1" fill="none" fill-rule="evenodd"/><path d="M2442 761C2450.31 779 2460 746 2446.15 752" stroke="#FEE8B0" stroke-width="5.72917" stroke-linecap="butt" stroke-linejoin="miter" stroke-miterlimit="8" stroke-opacity="1" fill="none" fill-rule="evenodd"/><path d="M2453 712C2457.33 707.333 2461.67 704.222 2466 698" stroke="#FEE8B0" stroke-width="5.72917" stroke-linecap="butt" stroke-linejoin="miter" stroke-miterlimit="8" stroke-opacity="1" fill="none" fill-rule="evenodd"/><path d="M2486 614.5C2487.44 646 2512 616 2497.56 610" stroke="#FEE8B0" stroke-width="5.72917" stroke-linecap="butt" stroke-linejoin="miter" stroke-miterlimit="8" stroke-opacity="1" fill="none" fill-rule="evenodd"/><path d="M2558 630C2554.67 633.143 2553 637.857 2554.67 641" stroke="#FEE8B0" stroke-width="5.72917" stroke-linecap="butt" stroke-linejoin="miter" stroke-miterlimit="8" stroke-opacity="1" fill="none" fill-rule="evenodd"/><path d="M2588.8 824C2586 816.187 2587.4 806.812 2591.6 799 2597.2 802.125 2598.6 809.937 2600 816.187" stroke="#FEE8B0" stroke-width="5.72917" stroke-linecap="butt" stroke-linejoin="miter" stroke-miterlimit="8" stroke-opacity="1" fill="none" fill-rule="evenodd"/><path d="M2427 926C2428.4 921.5 2429.8 918.5 2434 914" stroke="#FEE8B0" stroke-width="5.72917" stroke-linecap="butt" stroke-linejoin="miter" stroke-miterlimit="8" stroke-opacity="1" fill="none" fill-rule="evenodd"/><path d="M2149.65 817.421C2165.18 822 2168 793 2144 805.211" stroke="#FEE8B0" stroke-width="5.72917" stroke-linecap="butt" stroke-linejoin="miter" stroke-miterlimit="8" stroke-opacity="1" fill="none" fill-rule="evenodd"/><path d="M2156 747C2157.5 751.5 2160.5 756 2165 756" stroke="#FEE8B0" stroke-width="5.72917" stroke-linecap="butt" stroke-linejoin="miter" stroke-miterlimit="8" stroke-opacity="1" fill="none" fill-rule="evenodd"/><path d="M2022 758C2022 752 2016 749 2010 752" stroke="#FEE8B0" stroke-width="5.72917" stroke-linecap="butt" stroke-linejoin="miter" stroke-miterlimit="8" stroke-opacity="1" fill="none" fill-rule="evenodd"/><path d="M1997.71 792C1992 785.714 1994.86 774.714 2000.57 770 2007.71 774.714 2009.14 784.143 2012 792" stroke="#FEE8B0" stroke-width="5.72917" stroke-linecap="butt" stroke-linejoin="miter" stroke-miterlimit="8" stroke-opacity="1" fill="none" fill-rule="evenodd"/><path d="M2141 903C2138 904.5 2133.5 906 2132 906" stroke="#FEE8B0" stroke-width="5.72917" stroke-linecap="butt" stroke-linejoin="miter" stroke-miterlimit="8" stroke-opacity="1" fill="none" fill-rule="evenodd"/><path d="M2532 637C2532 641.5 2533.33 644.5 2536 646" stroke="#FEE8B0" stroke-width="5.72917" stroke-linecap="butt" stroke-linejoin="miter" stroke-miterlimit="8" stroke-opacity="1" fill="none" fill-rule="evenodd"/><path d="M2337 663C2338.4 663 2341.2 663 2344 663" stroke="#FEE8B0" stroke-width="5.72917" stroke-linecap="butt" stroke-linejoin="miter" stroke-miterlimit="8" stroke-opacity="1" fill="none" fill-rule="evenodd"/><path d="M2280 627C2280 631.286 2280 634.143 2283 637" stroke="#FEE8B0" stroke-width="5.72917" stroke-linecap="butt" stroke-linejoin="miter" stroke-miterlimit="8" stroke-opacity="1" fill="none" fill-rule="evenodd"/><path d="M2720 714C2720 708 2720 700.5 2725.14 696 2729 705 2725.14 712.5 2725.14 720" stroke="#FEE8B0" stroke-width="5.72917" stroke-linecap="butt" stroke-linejoin="miter" stroke-miterlimit="8" stroke-opacity="1" fill="none" fill-rule="evenodd"/><path d="M2772 675C2775 678.333 2779.5 680 2784 680" stroke="#FEE8B0" stroke-width="5.72917" stroke-linecap="butt" stroke-linejoin="miter" stroke-miterlimit="8" stroke-opacity="1" fill="none" fill-rule="evenodd"/><path d="M2878 660C2881 662 2885.5 662 2890 660" stroke="#FEE8B0" stroke-width="5.72917" stroke-linecap="butt" stroke-linejoin="miter" stroke-miterlimit="8" stroke-opacity="1" fill="none" fill-rule="evenodd"/><path d="M2944 662C2939.8 666.5 2938.4 669.5 2937 674" stroke="#FEE8B0" stroke-width="5.72917" stroke-linecap="butt" stroke-linejoin="miter" stroke-miterlimit="8" stroke-opacity="1" fill="none" fill-rule="evenodd"/><path d="M2643.33 633C2642 637.286 2643.33 640.143 2646 643" stroke="#FEE8B0" stroke-width="5.72917" stroke-linecap="butt" stroke-linejoin="miter" stroke-miterlimit="8" stroke-opacity="1" fill="none" fill-rule="evenodd"/><path d="M2697 642C2698.4 642 2701.2 640.5 2704 639" stroke="#FEE8B0" stroke-width="5.72917" stroke-linecap="butt" stroke-linejoin="miter" stroke-miterlimit="8" stroke-opacity="1" fill="none" fill-rule="evenodd"/><path d="M2706.5 614C2705 618.875 2706.5 623.75 2708 627" stroke="#FEE8B0" stroke-width="5.72917" stroke-linecap="butt" stroke-linejoin="miter" stroke-miterlimit="8" stroke-opacity="1" fill="none" fill-rule="evenodd"/><path d="M2642 767C2643.43 773 2646.29 776 2652 776" stroke="#FEE8B0" stroke-width="5.72917" stroke-linecap="butt" stroke-linejoin="miter" stroke-miterlimit="8" stroke-opacity="1" fill="none" fill-rule="evenodd"/><path d="M2771 733C2775.33 733 2779.67 731.5 2784 730" stroke="#FEE8B0" stroke-width="5.72917" stroke-linecap="butt" stroke-linejoin="miter" stroke-miterlimit="8" stroke-opacity="1" fill="none" fill-rule="evenodd"/><path d="M2911.5 718C2910 715 2910 710.5 2913 706" stroke="#FEE8B0" stroke-width="5.72917" stroke-linecap="butt" stroke-linejoin="miter" stroke-miterlimit="8" stroke-opacity="1" fill="none" fill-rule="evenodd"/><path d="M1898 1028C1899 1034.15 1899 1041.85 1899 1048" stroke="#FEE8B0" stroke-width="5.72917" stroke-linecap="butt" stroke-linejoin="miter" stroke-miterlimit="8" stroke-opacity="1" fill="none" fill-rule="evenodd"/><path d="M1826 1074.33C1821.5 1073 1818.5 1073 1817 1077" stroke="#FEE8B0" stroke-width="5.72917" stroke-linecap="butt" stroke-linejoin="miter" stroke-miterlimit="8" stroke-opacity="1" fill="none" fill-rule="evenodd"/><path d="M2488 882C2489.33 880.333 2490.67 878.667 2492 877" stroke="#FEE8B0" stroke-width="5.72917" stroke-linecap="butt" stroke-linejoin="miter" stroke-miterlimit="8" stroke-opacity="1" fill="none" fill-rule="evenodd"/><path d="M2522 900C2522 898.333 2522 896.667 2522 895" stroke="#FEE8B0" stroke-width="5.72917" stroke-linecap="butt" stroke-linejoin="miter" stroke-miterlimit="8" stroke-opacity="1" fill="none" fill-rule="evenodd"/></g></g></svg>