<svg width="32" height="31" viewBox="0 0 32 31" fill="none" xmlns="http://www.w3.org/2000/svg">
<g id="twitter" filter="url(#filter0_d_28_12)">
<path id="Vector" d="M27 3.49998C26.0424 4.17546 24.9821 4.69209 23.86 5.02999C23.2577 4.3375 22.4573 3.84668 21.567 3.62391C20.6767 3.40115 19.7395 3.45718 18.8821 3.78444C18.0247 4.1117 17.2884 4.69439 16.773 5.4537C16.2575 6.21302 15.9877 7.11232 16 8.02998V9.02998C14.2426 9.07555 12.5013 8.6858 10.931 7.89543C9.36074 7.10506 8.01032 5.93862 7 4.49998C7 4.49998 3 13.5 12 17.5C9.94053 18.898 7.48716 19.5989 5 19.5C14 24.5 25 19.5 25 7.99998C24.9991 7.72144 24.9723 7.44358 24.92 7.16999C25.9406 6.16348 26.6608 4.8927 27 3.49998Z" stroke="black" stroke-width="2" stroke-linecap="round" stroke-linejoin="round"/>
</g>
<defs>
<filter id="filter0_d_28_12" x="0" y="0.5" width="32" height="32" filterUnits="userSpaceOnUse" color-interpolation-filters="sRGB">
<feFlood flood-opacity="0" result="BackgroundImageFix"/>
<feColorMatrix in="SourceAlpha" type="matrix" values="0 0 0 0 0 0 0 0 0 0 0 0 0 0 0 0 0 0 127 0" result="hardAlpha"/>
<feOffset dy="4"/>
<feGaussianBlur stdDeviation="2"/>
<feComposite in2="hardAlpha" operator="out"/>
<feColorMatrix type="matrix" values="0 0 0 0 0 0 0 0 0 0 0 0 0 0 0 0 0 0 0.25 0"/>
<feBlend mode="normal" in2="BackgroundImageFix" result="effect1_dropShadow_28_12"/>
<feBlend mode="normal" in="SourceGraphic" in2="effect1_dropShadow_28_12" result="shape"/>
</filter>
</defs>
</svg>
